name rise42.5664peak47.7979fall81.9185.mot
datacolumns 19
datarows 36
range 7.25496700000000 7.31330100000000
endheader
time	ground_force1_vx	ground_force1_vy	ground_force1_vz	ground_force1_px	ground_force1_py	ground_force1_pz	ground_force2_vx	ground_force2_vy	ground_force2_vz	ground_force2_px	ground_force2_py	ground_force2_pz	ground_torque1_x	ground_torque1_y	ground_torque1_z	ground_torque2_x	ground_torque2_y	ground_torque2_z	
7.25496700000000	58.74427100000000	797.48936200000003	58.56320500000000	0.27354900000000	0.00000000000000	0.09854200000000	0.00000000000000	0.00000000000000	0.00000000000000	0.00000000000000	0.00000000000000	0.00000000000000	0.00000000000000	20.25991600000000	0.00000000000000	0.00000000000000	0.00000000000000	0.00000000000000	
7.25664100000000	58.14260400000000	799.86868900000002	58.68396400000000	0.27269500000000	0.00000000000000	0.09856300000000	0.00000000000000	0.00000000000000	0.00000000000000	0.00000000000000	0.00000000000000	0.00000000000000	0.00000000000000	20.30927600000000	0.00000000000000	0.00000000000000	0.00000000000000	0.00000000000000	
7.25830900000000	57.53957400000000	802.08098700000005	58.79352100000000	0.27186000000000	0.00000000000000	0.09858500000000	0.00000000000000	0.00000000000000	0.00000000000000	0.00000000000000	0.00000000000000	0.00000000000000	0.00000000000000	20.35417700000000	0.00000000000000	0.00000000000000	0.00000000000000	0.00000000000000	
7.25996900000000	56.93572500000000	804.12566700000002	58.89197500000000	0.27104400000000	0.00000000000000	0.09860600000000	0.00000000000000	0.00000000000000	0.00000000000000	0.00000000000000	0.00000000000000	0.00000000000000	0.00000000000000	20.39459300000000	0.00000000000000	0.00000000000000	0.00000000000000	0.00000000000000	
7.26163500000000	56.33153100000000	806.00237500000003	58.97940300000000	0.27024500000000	0.00000000000000	0.09862700000000	0.00000000000000	0.00000000000000	0.00000000000000	0.00000000000000	0.00000000000000	0.00000000000000	0.00000000000000	20.43048700000000	0.00000000000000	0.00000000000000	0.00000000000000	0.00000000000000	
7.26330800000000	55.72739700000000	807.71100500000000	59.05586100000000	0.26946100000000	0.00000000000000	0.09864800000000	0.00000000000000	0.00000000000000	0.00000000000000	0.00000000000000	0.00000000000000	0.00000000000000	0.00000000000000	20.46181000000000	0.00000000000000	0.00000000000000	0.00000000000000	0.00000000000000	
7.26496800000000	55.12366700000000	809.25170400000002	59.12138500000000	0.26869100000000	0.00000000000000	0.09866900000000	0.00000000000000	0.00000000000000	0.00000000000000	0.00000000000000	0.00000000000000	0.00000000000000	0.00000000000000	20.48850700000000	0.00000000000000	0.00000000000000	0.00000000000000	0.00000000000000	
7.26664100000000	54.52062100000000	810.62487599999997	59.17599500000000	0.26793200000000	0.00000000000000	0.09869000000000	0.00000000000000	0.00000000000000	0.00000000000000	0.00000000000000	0.00000000000000	0.00000000000000	0.00000000000000	20.51051600000000	0.00000000000000	0.00000000000000	0.00000000000000	0.00000000000000	
7.26830500000000	53.91848700000000	811.83118999999999	59.21969600000000	0.26718300000000	0.00000000000000	0.09871200000000	0.00000000000000	0.00000000000000	0.00000000000000	0.00000000000000	0.00000000000000	0.00000000000000	0.00000000000000	20.52776900000000	0.00000000000000	0.00000000000000	0.00000000000000	0.00000000000000	
7.26996800000000	53.31743700000000	812.87158099999999	59.25248100000000	0.26644200000000	0.00000000000000	0.09873300000000	0.00000000000000	0.00000000000000	0.00000000000000	0.00000000000000	0.00000000000000	0.00000000000000	0.00000000000000	20.54019500000000	0.00000000000000	0.00000000000000	0.00000000000000	0.00000000000000	
7.27163900000000	52.71759500000000	813.74725400000000	59.27433400000000	0.26570700000000	0.00000000000000	0.09875500000000	0.00000000000000	0.00000000000000	0.00000000000000	0.00000000000000	0.00000000000000	0.00000000000000	0.00000000000000	20.54772000000000	0.00000000000000	0.00000000000000	0.00000000000000	0.00000000000000	
7.27330200000000	52.11904300000000	814.45968600000003	59.28523300000000	0.26497600000000	0.00000000000000	0.09877700000000	0.00000000000000	0.00000000000000	0.00000000000000	0.00000000000000	0.00000000000000	0.00000000000000	0.00000000000000	20.55027300000000	0.00000000000000	0.00000000000000	0.00000000000000	0.00000000000000	
7.27497500000000	51.52182200000000	815.01062200000001	59.28515100000000	0.26424700000000	0.00000000000000	0.09879900000000	0.00000000000000	0.00000000000000	0.00000000000000	0.00000000000000	0.00000000000000	0.00000000000000	0.00000000000000	20.54777900000000	0.00000000000000	0.00000000000000	0.00000000000000	0.00000000000000	
7.27663900000000	50.92593700000000	815.40208199999995	59.27405900000000	0.26351800000000	0.00000000000000	0.09882200000000	0.00000000000000	0.00000000000000	0.00000000000000	0.00000000000000	0.00000000000000	0.00000000000000	0.00000000000000	20.54017000000000	0.00000000000000	0.00000000000000	0.00000000000000	0.00000000000000	
7.27830300000000	50.33136500000000	815.63634999999999	59.25193100000000	0.26278700000000	0.00000000000000	0.09884500000000	0.00000000000000	0.00000000000000	0.00000000000000	0.00000000000000	0.00000000000000	0.00000000000000	0.00000000000000	20.52738100000000	0.00000000000000	0.00000000000000	0.00000000000000	0.00000000000000	
7.27997300000000	49.73805400000000	815.71597599999996	59.21874300000000	0.26205300000000	0.00000000000000	0.09886800000000	0.00000000000000	0.00000000000000	0.00000000000000	0.00000000000000	0.00000000000000	0.00000000000000	0.00000000000000	20.50935300000000	0.00000000000000	0.00000000000000	0.00000000000000	0.00000000000000	
7.28164100000000	49.14593400000000	815.64377000000002	59.17447900000000	0.26131300000000	0.00000000000000	0.09889200000000	0.00000000000000	0.00000000000000	0.00000000000000	0.00000000000000	0.00000000000000	0.00000000000000	0.00000000000000	20.48603300000000	0.00000000000000	0.00000000000000	0.00000000000000	0.00000000000000	
7.28330400000000	48.55491500000000	815.42279699999995	59.11912900000000	0.26056600000000	0.00000000000000	0.09891600000000	0.00000000000000	0.00000000000000	0.00000000000000	0.00000000000000	0.00000000000000	0.00000000000000	0.00000000000000	20.45737900000000	0.00000000000000	0.00000000000000	0.00000000000000	0.00000000000000	
7.28496900000000	47.96489500000000	815.05636800000002	59.05269700000000	0.25980900000000	0.00000000000000	0.09894000000000	0.00000000000000	0.00000000000000	0.00000000000000	0.00000000000000	0.00000000000000	0.00000000000000	0.00000000000000	20.42335700000000	0.00000000000000	0.00000000000000	0.00000000000000	0.00000000000000	
7.28664200000000	47.37576700000000	814.54803800000002	58.97519800000000	0.25904200000000	0.00000000000000	0.09896500000000	0.00000000000000	0.00000000000000	0.00000000000000	0.00000000000000	0.00000000000000	0.00000000000000	0.00000000000000	20.38394500000000	0.00000000000000	0.00000000000000	0.00000000000000	0.00000000000000	
7.28830500000000	46.78741700000000	813.90159100000005	58.88666200000000	0.25826300000000	0.00000000000000	0.09899000000000	0.00000000000000	0.00000000000000	0.00000000000000	0.00000000000000	0.00000000000000	0.00000000000000	0.00000000000000	20.33913300000000	0.00000000000000	0.00000000000000	0.00000000000000	0.00000000000000	
7.28996900000000	46.19973100000000	813.12103400000001	58.78713700000000	0.25747100000000	0.00000000000000	0.09901600000000	0.00000000000000	0.00000000000000	0.00000000000000	0.00000000000000	0.00000000000000	0.00000000000000	0.00000000000000	20.28892400000000	0.00000000000000	0.00000000000000	0.00000000000000	0.00000000000000	
7.29163600000000	45.61260200000000	812.21058500000004	58.67668900000000	0.25666300000000	0.00000000000000	0.09904200000000	0.00000000000000	0.00000000000000	0.00000000000000	0.00000000000000	0.00000000000000	0.00000000000000	0.00000000000000	20.23333300000000	0.00000000000000	0.00000000000000	0.00000000000000	0.00000000000000	
7.29330900000000	45.02592700000000	811.17466600000000	58.55540400000000	0.25583900000000	0.00000000000000	0.09906800000000	0.00000000000000	0.00000000000000	0.00000000000000	0.00000000000000	0.00000000000000	0.00000000000000	0.00000000000000	20.17239200000000	0.00000000000000	0.00000000000000	0.00000000000000	0.00000000000000	
7.29497100000000	44.43961600000000	810.01788599999998	58.42339000000000	0.25499800000000	0.00000000000000	0.09909500000000	0.00000000000000	0.00000000000000	0.00000000000000	0.00000000000000	0.00000000000000	0.00000000000000	0.00000000000000	20.10614800000000	0.00000000000000	0.00000000000000	0.00000000000000	0.00000000000000	
7.29664100000000	43.85359200000000	808.74502900000005	58.28077500000000	0.25413900000000	0.00000000000000	0.09912200000000	0.00000000000000	0.00000000000000	0.00000000000000	0.00000000000000	0.00000000000000	0.00000000000000	0.00000000000000	20.03466100000000	0.00000000000000	0.00000000000000	0.00000000000000	0.00000000000000	
7.29830300000000	43.26779600000000	807.36104499999999	58.12771500000000	0.25326100000000	0.00000000000000	0.09914900000000	0.00000000000000	0.00000000000000	0.00000000000000	0.00000000000000	0.00000000000000	0.00000000000000	0.00000000000000	19.95800900000000	0.00000000000000	0.00000000000000	0.00000000000000	0.00000000000000	
7.29997600000000	42.68218800000000	805.87103400000001	57.96438600000000	0.25236200000000	0.00000000000000	0.09917600000000	0.00000000000000	0.00000000000000	0.00000000000000	0.00000000000000	0.00000000000000	0.00000000000000	0.00000000000000	19.87628500000000	0.00000000000000	0.00000000000000	0.00000000000000	0.00000000000000	
7.30163400000000	42.09674700000000	804.28022999999996	57.79098900000000	0.25144400000000	0.00000000000000	0.09920300000000	0.00000000000000	0.00000000000000	0.00000000000000	0.00000000000000	0.00000000000000	0.00000000000000	0.00000000000000	19.78959800000000	0.00000000000000	0.00000000000000	0.00000000000000	0.00000000000000	
7.30330300000000	41.51147900000000	802.59398899999997	57.60775200000000	0.25050500000000	0.00000000000000	0.09923100000000	0.00000000000000	0.00000000000000	0.00000000000000	0.00000000000000	0.00000000000000	0.00000000000000	0.00000000000000	19.69807400000000	0.00000000000000	0.00000000000000	0.00000000000000	0.00000000000000	
7.30496900000000	40.92641400000000	800.81777399999999	57.41492700000000	0.24954400000000	0.00000000000000	0.09925800000000	0.00000000000000	0.00000000000000	0.00000000000000	0.00000000000000	0.00000000000000	0.00000000000000	0.00000000000000	19.60185400000000	0.00000000000000	0.00000000000000	0.00000000000000	0.00000000000000	
7.30663500000000	40.34160500000000	798.95713999999998	57.21278800000000	0.24856300000000	0.00000000000000	0.09928500000000	0.00000000000000	0.00000000000000	0.00000000000000	0.00000000000000	0.00000000000000	0.00000000000000	0.00000000000000	19.50109200000000	0.00000000000000	0.00000000000000	0.00000000000000	0.00000000000000	
7.30830500000000	39.75713500000000	797.01771599999995	57.00163700000000	0.24756100000000	0.00000000000000	0.09931300000000	0.00000000000000	0.00000000000000	0.00000000000000	0.00000000000000	0.00000000000000	0.00000000000000	0.00000000000000	19.39596100000000	0.00000000000000	0.00000000000000	0.00000000000000	0.00000000000000	
7.30997200000000	39.17311500000000	795.00519499999996	56.78179600000000	0.24653800000000	0.00000000000000	0.09934000000000	0.00000000000000	0.00000000000000	0.00000000000000	0.00000000000000	0.00000000000000	0.00000000000000	0.00000000000000	19.28664700000000	0.00000000000000	0.00000000000000	0.00000000000000	0.00000000000000	
7.31163600000000	38.58968000000000	792.92531299999996	56.55361300000000	0.24549400000000	0.00000000000000	0.09936600000000	0.00000000000000	0.00000000000000	0.00000000000000	0.00000000000000	0.00000000000000	0.00000000000000	0.00000000000000	19.17334700000000	0.00000000000000	0.00000000000000	0.00000000000000	0.00000000000000	
7.31330100000000	38.00699600000000	790.78384000000005	56.31745600000000	0.24443100000000	0.00000000000000	0.09939300000000	0.00000000000000	0.00000000000000	0.00000000000000	0.00000000000000	0.00000000000000	0.00000000000000	0.00000000000000	19.05627500000000	0.00000000000000	0.00000000000000	0.00000000000000	0.00000000000000	
